<?xml version="1.0" standalone="no"?>
<!DOCTYPE svg PUBLIC "-//W3C//DTD SVG 20010904//EN"
 "http://www.w3.org/TR/2001/REC-SVG-20010904/DTD/svg10.dtd">
<svg version="1.0" xmlns="http://www.w3.org/2000/svg"
 width="700.000000pt" height="700.000000pt" viewBox="0 0 700.000000 700.000000"
 preserveAspectRatio="xMidYMid meet">
<metadata>
Created by potrace 1.11, written by Peter Selinger 2001-2013
</metadata>
<g transform="translate(0.000000,700.000000) scale(0.100000,-0.100000)"
fill="#000000" stroke="none">
<path d="M3274 6280 c-671 -60 -1276 -341 -1744 -810 -431 -430 -696 -960
-791 -1580 -32 -209 -32 -571 0 -780 95 -620 360 -1150 791 -1580 430 -431
960 -696 1580 -791 209 -32 571 -32 780 0 620 95 1150 360 1580 791 431 430
696 960 791 1580 32 209 32 571 0 780 -95 620 -360 1150 -791 1580 -429 430
-967 699 -1575 790 -158 23 -475 34 -621 20z m1326 -2472 c0 -947 -3 -1183
-14 -1223 -52 -195 -218 -350 -411 -384 -197 -35 -409 71 -499 249 -96 193
-57 411 102 570 114 114 254 165 410 150 l52 -6 0 528 0 528 -22 -5 c-34 -8
-991 -185 -1000 -185 -4 0 -8 -347 -8 -771 0 -653 -2 -780 -15 -829 -83 -322
-415 -487 -705 -352 -72 34 -178 140 -212 212 -91 196 -51 408 106 566 112
111 237 161 387 152 l79 -5 0 839 c0 461 1 838 3 839 21 4 1726 297 1735 298
9 1 12 -240 12 -1171z"/>
</g>
</svg>
